<svg width="14" height="14" viewBox="0 0 14 14" fill="none" xmlns="http://www.w3.org/2000/svg">
<path fill-rule="evenodd" clip-rule="evenodd" d="M12.8333 6.16658H7.83325V1.16659C7.83325 0.705752 7.45992 0.333252 6.99992 0.333252C6.53992 0.333252 6.16658 0.705752 6.16658 1.16659V6.16658H1.16659C0.706585 6.16658 0.333252 6.53908 0.333252 6.99992C0.333252 7.46075 0.706585 7.83325 1.16659 7.83325H6.16658V12.8333C6.16658 13.2941 6.53992 13.6666 6.99992 13.6666C7.45992 13.6666 7.83325 13.2941 7.83325 12.8333V7.83325H12.8333C13.2933 7.83325 13.6666 7.46075 13.6666 6.99992C13.6666 6.53908 13.2933 6.16658 12.8333 6.16658Z" fill="white"/>
</svg>
